#!OML:ASF E:\Steps\Project 1\Capture day 1\Session 2\Subject.ASF
:FULLY-SPECIFIED
:DEGREES
143
root 10.4152 15.2452 18.5771 -142.024 -54.1128 173.774
lowerback -14.6865 7.89243 -5.76065
upperback -2.92469 11.3038 -2.4894
thorax 4.40752 5.44295 2.53364
lowerneck 0.641112 -0.239817 -1.67512
upperneck 8.80762 -0.959466 6.36599
head 2.75624 -0.426755 2.34081
rclavicle 8.66701e-014 -1.27222e-014
rhumerus -31.7422 23.5495 -95.3081
rradius 68.1002
rwrist -0.467529
rhand -19.7312 -44.7864
rfingers 7.12502
rthumb 6.59935 -74.6635
lclavicle 8.66701e-014 -1.27222e-014
lhumerus -36.2737 -19.9025 92.0171
lradius 57.4449
lwrist 3.71217
lhand -31.161 -21.6066
lfingers 7.12502
lthumb -4.43863 8.3269
rfemur -56.8648 -17.1682 38.5907
rtibia 54.242
rfoot -30.1003 -28.2736
rtoes -31.91
lfemur -68.5541 -20.2334 -4.19626
ltibia 52.0779
lfoot 13.714 -20.7107
ltoes 48.1568
144
root 10.4232 15.5581 18.4727 -140.975 -58.0165 172.94
lowerback -15.729 8.06607 -5.71462
upperback -3.04158 11.583 -2.49838
thorax 4.83414 5.55517 2.69538
lowerneck 0.490624 -0.301078 -1.5811
upperneck 8.82069 -1.03383 6.37668
head 2.79108 -0.452979 2.32695
rclavicle -2.42517e-014 2.22639e-014
rhumerus -32.04 22.6281 -94.6811
rradius 67.6205
rwrist -1.27727
rhand -19.8193 -45.4074
rfingers 7.12502
rthumb 6.51429 -75.2873
lclavicle -2.42517e-014 2.22639e-014
lhumerus -35.5695 -20.9313 92.2152
lradius 57.3648
lwrist 3.37584
lhand -31.2231 -21.7756
lfingers 7.12502
lthumb -4.49857 8.15664
rfemur -55.0273 -17.5538 38.6352
rtibia 50.3508
rfoot -25.168 -29.3397
rtoes -33.4183
lfemur -67.1426 -20.5084 -3.77766
ltibia 47.5105
lfoot 18.1081 -19.423
ltoes 44.6972
145
root 10.4242 15.8846 18.3713 -139.552 -61.9757 171.738
lowerback -16.9166 7.88912 -5.72948
upperback -3.09582 11.4005 -2.20164
thorax 5.36019 5.43111 3.15473
lowerneck 0.523574 -0.203261 -1.8798
upperneck 8.8107 -0.88514 6.38257
head 2.77787 -0.385118 2.38651
rclavicle 7.91163e-014 8.74653e-014
rhumerus -32.6469 22.7676 -94.0745
rradius 67.1654
rwrist -1.62358
rhand -19.91 -45.8225
rfingers 7.12502
rthumb 6.42668 -75.705
lclavicle 7.91163e-014 8.74653e-014
lhumerus -34.9275 -20.6567 92.4922
lradius 57.3766
lwrist 3.0876
lhand -31.5131 -21.7598
lfingers 7.12502
lthumb -4.77856 8.16635
rfemur -53.0196 -17.5213 38.1827
rtibia 46.1462
rfoot -19.7199 -30.0923
rtoes -33.9549
lfemur -65.6139 -20.6253 -3.61397
ltibia 42.6496
lfoot 23.6758 -17.4545
ltoes 43.2849
146
root 10.4149 16.2225 18.2758 -137.449 -65.9176 169.755
lowerback -17.9899 7.84755 -5.85605
upperback -3.15459 11.425 -2.14281
thorax 5.83092 5.4092 3.44529
lowerneck 0.431321 -0.232863 -1.88152
upperneck 8.8326 -0.914849 6.37052
head 2.80363 -0.394371 2.3832
rclavicle 3.97569e-016 -2.38542e-014
rhumerus -33.2775 21.9319 -93.4846
rradius 66.5824
rwrist -1.41711
rhand -20.3402 -44.8889
rfingers 7.12502
rthumb 6.0114 -74.7836
lclavicle 3.97569e-016 -2.38542e-014
lhumerus -34.1448 -20.8007 92.7028
lradius 57.3491
lwrist 2.94891
lhand -31.813 -21.8136
lfingers 7.12502
lthumb -5.06817 8.10582
rfemur -50.9924 -16.6119 36.8917
rtibia 42.3123
rfoot -14.2648 -31.228
rtoes -34.8852
lfemur -63.7614 -20.4198 -4.21316
ltibia 37.3087
lfoot 30.3341 -14.9964
ltoes 41.9016
147
root 10.4 16.5645 18.188 -134.381 -69.834 166.706
lowerback -18.8128 7.84419 -5.86643
upperback -3.26149 11.469 -2.20487
thorax 6.16072 5.40788 3.51209
lowerneck 0.328499 -0.24411 -2.14146
upperneck 8.86744 -0.920042 6.44246
head 2.83867 -0.396856 2.45649
rclavicle -1.15295e-014 2.22639e-014
rhumerus -34.053 20.9177 -92.954
rradius 66.0088
rwrist -1.20561
rhand -19.6945 -45.4456
rfingers 7.12502
rthumb 6.63475 -75.3217
lclavicle -1.15295e-014 2.22639e-014
lhumerus -33.4602 -21.3312 92.9934
lradius 57.294
lwrist 3.3487
lhand -32.2778 -22.0171
lfingers 7.12502
lthumb -5.51697 7.8911
rfemur -48.9608 -15.5179 35.2303
rtibia 38.6467
rfoot -8.60841 -32.2218
rtoes -37.0903
lfemur -61.5734 -19.8875 -5.58185
ltibia 31.6233
lfoot 37.363 -11.8277
ltoes 40.0333
148
root 10.3835 16.9058 18.1068 -129.898 -73.8329 162.29
lowerback -19.6425 7.98733 -5.60881
upperback -3.35957 11.6782 -2.54835
thorax 6.60348 5.48789 3.18713
lowerneck -0.0437017 -0.43084 -1.88157
upperneck 8.84849 -1.1678 6.49706
head 2.9116 -0.4989 2.42374
rclavicle -1.02175e-013 1.59028e-014
rhumerus -34.602 19.3206 -92.5705
rradius 65.2944
rwrist -0.786778
rhand -19.3005 -45.402
rfingers 7.12502
rthumb 7.01506 -75.2658
lclavicle -1.02175e-013 1.59028e-014
lhumerus -32.7269 -23.2318 93.0903
lradius 57.3692
lwrist 4.64536
lhand -32.8725 -22.0509
lfingers 7.12502
lthumb -6.09109 7.84155
rfemur -46.9889 -13.6852 33.2794
rtibia 35.4152
rfoot -4.14989 -33.3341
rtoes -36.6102
lfemur -59.3429 -18.995 -7.36401
ltibia 25.9249
lfoot 43.5239 -7.25739
ltoes 38.3593
149
root 10.3545 17.2435 18.0295 -122.825 -77.744 155.167
lowerback -20.9291 7.38935 -5.53573
upperback -3.12495 10.9322 -2.00098
thorax 7.50009 5.06573 3.76826
lowerneck 0.237769 -0.281361 -2.38367
upperneck 8.78777 -0.950672 6.56175
head 2.83472 -0.408808 2.54067
rclavicle -7.35503e-014 -2.06736e-014
rhumerus -35.2155 20.1335 -91.9249
rradius 64.6547
rwrist -0.381934
rhand -19.1026 -45.8821
rfingers 7.12502
rthumb 7.20613 -75.7394
lclavicle -7.35503e-014 -2.06736e-014
lhumerus -32.01 -22.4679 93.5668
lradius 57.4257
lwrist 5.34384
lhand -33.5709 -22.1846
lfingers 7.12502
lthumb -6.76531 7.68735
rfemur -44.8136 -11.2656 31.0046
rtibia 32.3796
rfoot -0.567731 -34.6459
rtoes -34.4692
lfemur -56.7317 -17.3838 -10.3054
ltibia 21.5264
lfoot 47.1287 -8.04878
ltoes 22.5179
150
root 10.3083 17.5715 17.9683 -109.343 -81.2316 141.408
lowerback -21.7475 7.09625 -5.23225
upperback -3.0959 10.5217 -1.90352
thorax 8.03642 4.84028 3.73223
lowerneck 0.375898 -0.201698 -2.66654
upperneck 8.76377 -0.833318 6.60434
head 2.79862 -0.358468 2.60884
rclavicle -1.18078e-013 6.36111e-015
rhumerus -36.4153 19.8932 -91.8516
rradius 64.2951
rwrist -0.594069
rhand -19.1204 -46.717
rfingers 7.12502
rthumb 7.18889 -76.5749
lclavicle -1.18078e-013 6.36111e-015
lhumerus -31.5837 -22.5163 93.9617
lradius 57.3746
lwrist 5.67331
lhand -34.0561 -22.5834
lfingers 7.12502
lthumb -7.23368 7.273
rfemur -42.327 -8.23948 28.0918
rtibia 29.4735
rfoot 1.04077 -35.9623
rtoes -29.3187
lfemur -54.1597 -17.0041 -12.0243
ltibia 18.0812
lfoot 46.2146 -6.09159
ltoes 10.6655
151
root 10.2515 17.8874 17.9321 -79.5953 -83.5791 111.412
lowerback -22.7125 6.69628 -4.88936
upperback -3.04689 9.96409 -1.80677
thorax 8.68825 4.53988 3.64448
lowerneck 0.479374 -0.164513 -2.83254
upperneck 8.73055 -0.775367 6.63827
head 2.76742 -0.333708 2.65125
rclavicle 1.31198e-014 1.27222e-014
rhumerus -37.8125 19.5901 -91.7328
rradius 64.0808
rwrist -1.28964
rhand -19.2592 -46.6572
rfingers 7.12502
rthumb 7.05491 -76.5196
lclavicle 1.31198e-014 1.27222e-014
lhumerus -31.3051 -22.7182 94.4754
lradius 57.4991
lwrist 6.06913
lhand -34.1014 -23.0837
lfingers 7.12502
lthumb -7.27744 6.77113
rfemur -40.034 -5.60228 25.48
rtibia 26.7091
rfoot 5.95866 -35.0572
rtoes -31.6504
lfemur -52.1731 -17.6678 -13.2954
ltibia 15.7891
lfoot 41.9024 -5.99533
ltoes -3.03635
152
root 10.2095 18.1879 17.9027 -36.0125 -82.8628 68.2678
lowerback -23.8793 6.23438 -4.63793
upperback -3.40171 9.31474 -1.80001
thorax 8.99617 4.2107 3.45445
lowerneck 0.60638 -0.278214 -3.04544
upperneck 8.7334 -0.932743 6.79631
head 2.75862 -0.414502 2.74101
rclavicle 5.08889e-014 -3.97569e-014
rhumerus -39.6591 18.5246 -91.4631
rradius 64.1271
rwrist -1.47979
rhand -18.0999 -45.699
rfingers 7.12502
rthumb 8.17394 -75.5209
lclavicle 5.08889e-014 -3.97569e-014
lhumerus -31.5036 -23.6802 95.2965
lradius 57.8979
lwrist 6.47139
lhand -33.8591 -23.4862
lfingers 7.12502
lthumb -7.04353 6.37658
rfemur -39.1173 -3.21865 23.0612
rtibia 25.0908
rfoot 10.0395 -31.8985
rtoes -26.218
lfemur -51.7058 -18.4818 -14.1831
ltibia 15.0379
lfoot 34.8844 -5.99508
ltoes -22.3981
153
root 10.1593 18.4687 17.8804 -10.0862 -79.7794 42.9414
lowerback -25.1476 5.83348 -4.19728
upperback -3.87152 8.68398 -1.81011
thorax 9.24447 3.89972 3.12884
lowerneck 0.755266 -0.414164 -3.05527
upperneck 8.74008 -1.12329 6.91241
head 2.74645 -0.507409 2.77814
rclavicle 1.19271e-014 7.95139e-015
rhumerus -41.4015 17.6331 -91.5997
rradius 64.0576
rwrist -2.05792
rhand -17.1594 -44.4049
rfingers 7.12502
rthumb 9.08152 -74.1894
lclavicle 1.19271e-014 7.95139e-015
lhumerus -31.7873 -24.7998 95.9785
lradius 58.1976
lwrist 6.55914
lhand -33.392 -23.7913
lfingers 7.12502
lthumb -6.59268 6.08612
rfemur -38.3406 -0.705567 20.9373
rtibia 22.8671
rfoot 13.9569 -25.4746
rtoes -25.2643
lfemur -51.3166 -18.1075 -15.3198
ltibia 14.6806
lfoot 30.018 -6.94642
ltoes -33.2207
154
root 10.1134 18.727 17.8726 4.1038 -75.557 29.457
lowerback -26.5241 5.20748 -3.60297
upperback -4.33001 7.69787 -1.68029
thorax 9.56084 3.42171 2.74455
lowerneck 0.95999 -0.39997 -3.2484
upperneck 8.68822 -1.10177 6.98035
head 2.69357 -0.50355 2.83614
rclavicle 4.27387e-014 -4.13472e-014
rhumerus -43.4044 17.4617 -91.8238
rradius 64.4389
rwrist -3.31136
rhand -16.5953 -42.8293
rfingers 7.12502
rthumb 9.6258 -72.5894
lclavicle 4.27387e-014 -4.13472e-014
lhumerus -31.887 -25.4131 96.3715
lradius 58.4172
lwrist 6.18962
lhand -32.7856 -23.9852
lfingers 7.12502
lthumb -6.00724 5.90963
rfemur -38.0889 1.79709 19.1092
rtibia 21.519
rfoot 12.5291 -18.7419
rtoes -23.8767
lfemur -51.0461 -16.9363 -16.7565
ltibia 14.4723
lfoot 29.994 -8.72048
ltoes -32.3235
155
root 10.0834 18.973 17.8683 12.2131 -70.3393 21.9925
lowerback -27.6413 4.45632 -3.05228
upperback -4.77889 6.54 -1.47465
thorax 9.72126 2.87449 2.35179
lowerneck 0.765998 -0.313435 -3.03918
upperneck 8.82894 -0.972325 6.7787
head 2.76348 -0.430535 2.73377
rclavicle 2.32578e-014 -1.43125e-014
rhumerus -45.0428 17.0299 -92.0508
rradius 64.4932
rwrist -4.26016
rhand -16.2508 -42.3848
rfingers 7.12502
rthumb 9.95823 -72.1292
lclavicle 2.32578e-014 -1.43125e-014
lhumerus -31.9981 -26.2307 96.9422
lradius 58.6999
lwrist 5.55022
lhand -32.3908 -24.3387
lfingers 7.12502
lthumb -5.62606 5.56659
rfemur -37.8282 2.92701 18.0928
rtibia 20.2078
rfoot 9.66847 -15.0915
rtoes -19.1248
lfemur -50.9292 -15.8576 -18.2483
ltibia 14.5909
lfoot 31.2309 -9.84393
ltoes -27.3975
156
root 10.0604 19.2111 17.8399 17.6865 -65.2086 16.9642
lowerback -28.6634 3.8408 -2.53242
upperback -5.0517 5.55929 -1.11277
thorax 9.98265 2.41128 2.18366
lowerneck 1.0082 -0.451992 -2.82552
upperneck 8.72998 -1.16276 6.85638
head 2.69491 -0.520028 2.7141
rclavicle 3.67752e-014 -3.18055e-015
rhumerus -46.0333 15.9159 -92.0348
rradius 64.2702
rwrist -4.45804
rhand -16.0901 -43.9683
rfingers 7.12502
rthumb 10.1133 -73.7053
lclavicle 3.67752e-014 -3.18055e-015
lhumerus -31.7976 -27.4449 97.5725
lradius 58.8253
lwrist 4.93334
lhand -32.2932 -25.1719
lfingers 7.12502
lthumb -5.53181 4.7359
rfemur -37.9963 4.43586 17.9753
rtibia 19.4425
rfoot 7.8753 -12.0373
rtoes -26.2952
lfemur -50.8166 -14.3355 -19.1248
ltibia 15.0261
lfoot 32.3933 -10.1154
ltoes -21.3283
157
root 10.0299 19.4136 17.8088 20.5585 -60.9077 14.2646
lowerback -28.9077 3.32585 -2.68324
upperback -5.59744 4.86292 -0.673181
thorax 9.45459 2.09034 2.50627
lowerneck 1.23354 -0.419746 -2.76196
upperneck 8.74821 -1.11874 6.83301
head 2.65602 -0.499004 2.69429
rclavicle 5.74488e-014 -1.74931e-014
rhumerus -47.8759 15.0584 -91.9866
rradius 64.291
rwrist -4.62373
rhand -16.485 -45.4521
rfingers 7.12502
rthumb 9.73223 -75.2073
lclavicle 5.74488e-014 -1.74931e-014
lhumerus -32.194 -28.444 98.6823
lradius 58.8133
lwrist 4.37312
lhand -31.9701 -25.8445
lfingers 7.12502
lthumb -5.21983 4.07119
rfemur -38.1569 4.91521 18.4935
rtibia 19.5128
rfoot 8.50661 -8.80709
rtoes -38.2289
lfemur -50.2911 -12.8328 -19.9284
ltibia 15.5005
lfoot 32.1304 -10.0644
ltoes -20.6668
